# xmcd CD database file
#
# Track frame offsets:
#	150
#	11557
#	22287
#	32760
#	42067
#	54572
#	64585
#	74655
#	85875
#	99647
#	111162
#	124295
#	142237
#	153930
#	167260
#	177640
#	188010
#	199107
#	208370
#	219742
#	229775
#	242527
#	252542
#	265757
#	278120
#	288272
#	299512
#	310347
#	319537
#	329942
#
# Disc length: 4545 seconds
#
# Revision: 1
# Processed by: cddbd v1.5.2PL0 Copyright (c) Steve Scherf et al.
# Submitted via: CDex 1.70beta2
#
DISCID=d811bf1e
DTITLE=Tommy Collins - Leonard - Disc 3
DYEAR=1992
DGENRE=Country
TTITLE0=Amazing Grace
TTITLE1=The Old Rugged Cross
TTITLE2=Heart's Don't Break
TTITLE3=You Belong In My Arms
TTITLE4=A Hundred Years From Now
TTITLE5=Little June
TTITLE6=My Last Chance With You
TTITLE7=Sidewalks Of New York
TTITLE8=The Last Letter
TTITLE9=Oklahoma Hills
TTITLE10=The Great Speckled Bird
TTITLE11=Broken Engagement
TTITLE12=Wreck Of The Old 97
TTITLE13=I'm Just Here To Get My Baby Out Of Jail
TTITLE14=Have I Told You Lately That I Love You
TTITLE15=It Makes No Difference Now
TTITLE16=Let's Live A Little
TTITLE17=I'll Keep On Loving You
TTITLE18=I Overlooked An Orchid
TTITLE19=I Wonder If You Feel The Way I Do
TTITLE20=Juicy Fruit
TTITLE21=Black Cat
TTITLE22=We Kissed Again With Tears
TTITLE23=Keep Dreaming
TTITLE24=Don't Let Me Stand In His Footsteps
TTITLE25=Sunner's Almost Gone
TTITLE26=Take Me Back To The Good Old Days
TTITLE27=Oh What A Dream
TTITLE28=Let Her Go
TTITLE29=When Did Right Become Wrong
EXTD=YEAR: 1992
EXTT0=
EXTT1=
EXTT2=
EXTT3=
EXTT4=
EXTT5=
EXTT6=
EXTT7=
EXTT8=
EXTT9=
EXTT10=
EXTT11=
EXTT12=
EXTT13=
EXTT14=
EXTT15=
EXTT16=
EXTT17=
EXTT18=
EXTT19=
EXTT20=
EXTT21=
EXTT22=
EXTT23=
EXTT24=
EXTT25=
EXTT26=
EXTT27=
EXTT28=
EXTT29=
PLAYORDER=
